<svg width="285" height="122" viewBox="0 0 285 122" fill="none" xmlns="http://www.w3.org/2000/svg">
<path fill-rule="evenodd" clip-rule="evenodd" d="M284.642 2.28882e-05V18.15L239.699 121H209.276L252.663 22.8172H212.56V42.5229H187.669V2.28882e-05H284.642ZM13.157 110.388H8.84883V121.238H0.551691V92.6236H8.84883V103.74H13.3165L21.0818 92.6236H29.9108L19.9117 106.346L30.6022 121.238H20.8159L13.157 110.388ZM62.1208 92.6236V121.238H53.8237V99.4315H44.7819L44.516 104.484C44.3742 108.243 44.0196 111.363 43.4523 113.845C42.8849 116.327 41.963 118.277 40.6865 119.696C39.4101 121.114 37.6372 121.823 35.3679 121.823C34.1623 121.823 32.7263 121.61 31.0597 121.185L31.4852 114.377C32.0526 114.448 32.4603 114.483 32.7085 114.483C33.9496 114.483 34.8715 114.04 35.4742 113.154C36.1125 112.232 36.538 111.079 36.7507 109.697C36.9635 108.278 37.123 106.417 37.2294 104.112L37.6549 92.6236H62.1208ZM70.0997 92.6236H78.3436V109.643L92.2786 92.6236H99.8843V121.238H91.6404V104.218L77.7586 121.238H70.0997V92.6236ZM135.783 121.238V104.112L127.22 118.472H123.71L115.36 104.059V121.238H107.86V92.6236H116.53L125.678 109.165L135.411 92.6236H143.176L143.283 121.238H135.783ZM162.346 92.1981C166.779 92.1981 170.183 93.2619 172.558 95.3893C174.934 97.4813 176.122 100.655 176.122 104.91V121.238H168.357V117.675C166.796 120.334 163.889 121.664 159.634 121.664C157.435 121.664 155.521 121.291 153.89 120.547C152.294 119.802 151.071 118.774 150.22 117.462C149.369 116.15 148.943 114.661 148.943 112.994C148.943 110.335 149.936 108.243 151.922 106.718C153.943 105.193 157.045 104.431 161.229 104.431H167.825C167.825 102.623 167.275 101.24 166.176 100.283C165.077 99.2897 163.428 98.7933 161.229 98.7933C159.705 98.7933 158.198 99.0415 156.709 99.5379C155.255 99.9988 154.014 100.637 152.986 101.453L150.007 95.6553C151.567 94.5561 153.429 93.7051 155.592 93.1023C157.79 92.4995 160.042 92.1981 162.346 92.1981ZM161.708 116.079C163.126 116.079 164.385 115.76 165.484 115.122C166.584 114.448 167.364 113.473 167.825 112.196V109.271H162.134C158.73 109.271 157.028 110.388 157.028 112.622C157.028 113.686 157.435 114.537 158.251 115.175C159.102 115.778 160.254 116.079 161.708 116.079ZM207.37 99.4315H197.69V121.238H189.446V99.4315H179.766V92.6236H207.37V99.4315ZM168 77.0005L117 63.3351V78.2939H168V77.0005ZM108.395 61.0293L59.6403 47.9656V78.1026H108.395V61.0293ZM51 45.6504L0 31.985V78.2939H51V45.6504Z" fill="white"/>
<path fill-rule="evenodd" clip-rule="evenodd" d="M51 35.9589L-3.93538e-06 22.2935L-5.88433e-06 4.56701e-05L51 4.12115e-05L51 35.9589ZM108 51.232L60 38.3704L60 1.75365e-05L108 1.33402e-05L108 51.232ZM168 67.3089L117 53.6435L117 3.54416e-05L168 3.0983e-05L168 67.3089Z" fill="white"/>
</svg>
